ffmpeg version 5.1.6-0+deb12u1 Copyright (c) 2000-2024 the FFmpeg developers
  built with gcc 12 (Debian 12.2.0-14)
  configuration: --prefix=/usr --extra-version=0+deb12u1 --toolchain=hardened --libdir=/usr/lib/x86_64-linux-gnu --incdir=/usr/include/x86_64-linux-gnu --arch=amd64 --enable-gpl --disable-stripping --enable-gnutls --enable-ladspa --enable-libaom --enable-libass --enable-libbluray --enable-libbs2b --enable-libcaca --enable-libcdio --enable-libcodec2 --enable-libdav1d --enable-libflite --enable-libfontconfig --enable-libfreetype --enable-libfribidi --enable-libglslang --enable-libgme --enable-libgsm --enable-libjack --enable-libmp3lame --enable-libmysofa --enable-libopenjpeg --enable-libopenmpt --enable-libopus --enable-libpulse --enable-librabbitmq --enable-librist --enable-librubberband --enable-libshine --enable-libsnappy --enable-libsoxr --enable-libspeex --enable-libsrt --enable-libssh --enable-libsvtav1 --enable-libtheora --enable-libtwolame --enable-libvidstab --enable-libvorbis --enable-libvpx --enable-libwebp --enable-libx265 --enable-libxml2 --enable-libxvid --enable-libzimg --enable-libzmq --enable-libzvbi --enable-lv2 --enable-omx --enable-openal --enable-opencl --enable-opengl --enable-sdl2 --disable-sndio --enable-libjxl --enable-pocketsphinx --enable-librsvg --enable-libmfx --enable-libdc1394 --enable-libdrm --enable-libiec61883 --enable-chromaprint --enable-frei0r --enable-libx264 --enable-libplacebo --enable-librav1e --enable-shared
  libavutil      57. 28.100 / 57. 28.100
  libavcodec     59. 37.100 / 59. 37.100
  libavformat    59. 27.100 / 59. 27.100
  libavdevice    59.  7.100 / 59.  7.100
  libavfilter     8. 44.100 /  8. 44.100
  libswscale      6.  7.100 /  6.  7.100
  libswresample   4.  7.100 /  4.  7.100
  libpostproc    56.  6.100 / 56.  6.100
[rawvideo @ 0x55e3a1bc57c0] Stream #0: not enough frames to estimate rate; consider increasing probesize
Input #0, rawvideo, from 'pipe:':
  Duration: N/A, start: 0.000000, bitrate: 13436928 kb/s
  Stream #0:0: Video: rawvideo (RGB[24] / 0x18424752), rgb24, 2160x2160, 13436928 kb/s, 120 tbr, 120 tbn
Stream mapping:
  Stream #0:0 -> #0:0 (rawvideo (native) -> h264 (libx264))
[libx264 @ 0x55e3a1bda4c0] using cpu capabilities: MMX2 SSE2Fast SSSE3 SSE4.2 AVX FMA3 BMI2 AVX2
[libx264 @ 0x55e3a1bda4c0] profile High, level 6.0, 4:2:0, 8-bit
[libx264 @ 0x55e3a1bda4c0] 264 - core 164 r3095 baee400 - H.264/MPEG-4 AVC codec - Copyleft 2003-2022 - http://www.videolan.org/x264.html - options: cabac=1 ref=3 deblock=1:0:0 analyse=0x3:0x113 me=hex subme=7 psy=1 psy_rd=1.00:0.00 mixed_ref=1 me_range=16 chroma_me=1 trellis=1 8x8dct=1 cqm=0 deadzone=21,11 fast_pskip=1 chroma_qp_offset=-2 threads=24 lookahead_threads=4 sliced_threads=0 nr=0 decimate=1 interlaced=0 bluray_compat=0 constrained_intra=0 bframes=3 b_pyramid=2 b_adapt=1 b_bias=0 direct=1 weightb=1 open_gop=0 weightp=2 keyint=250 keyint_min=25 scenecut=40 intra_refresh=0 rc_lookahead=40 rc=crf mbtree=1 crf=15.0 qcomp=0.60 qpmin=0 qpmax=69 qpstep=4 ip_ratio=1.40 aq=1:1.00
Output #0, mp4, to '/home/kaiser/sketchbook/all/proccessing_sketches/test/sketch_241207c/myVideo.mp4':
  Metadata:
    comment         : Made with Video Export for Processing - https://git.io/vAXLk
    encoder         : Lavf59.27.100
  Stream #0:0: Video: h264 (avc1 / 0x31637661), yuv420p(tv, progressive), 2160x2160, q=2-31, 120 fps, 15360 tbn
    Metadata:
      encoder         : Lavc59.37.100 libx264
    Side data:
      cpb: bitrate max/min/avg: 0/0/0 buffer size: 0 vbv_delay: N/A
frame=    1 fps=0.0 q=0.0 size=       0kB time=00:00:00.00 bitrate=N/A speed=   0x    frame=    9 fps=0.0 q=0.0 size=       0kB time=00:00:00.00 bitrate=N/A speed=   0x    frame=   21 fps= 21 q=0.0 size=       0kB time=00:00:00.00 bitrate=N/A speed=   0x    frame=   33 fps= 22 q=0.0 size=       0kB time=00:00:00.00 bitrate=N/A speed=   0x    frame=   46 fps= 22 q=0.0 size=       0kB time=00:00:00.00 bitrate=N/A speed=   0x    frame=   57 fps= 22 q=0.0 size=       0kB time=00:00:00.00 bitrate=N/A speed=   0x    frame=   69 fps= 22 q=25.0 size=       0kB time=-00:00:00.01 bitrate=N/A speed=N/A    frame=   82 fps= 23 q=25.0 size=       0kB time=00:00:00.09 bitrate=   4.2kbits/s speed=0.0254x    frame=   95 fps= 23 q=25.0 size=       0kB time=00:00:00.20 bitrate=   1.9kbits/s speed=0.0483x    frame=  108 fps= 23 q=25.0 size=       0kB time=00:00:00.30 bitrate=   1.2kbits/s speed=0.066x    frame=  121 fps= 23 q=25.0 size=       0kB time=00:00:00.41 bitrate=   0.9kbits/s speed=0.0806x    frame=  134 fps= 23 q=25.0 size=       0kB time=00:00:00.52 bitrate=   0.7kbits/s speed=0.0919x    frame=  147 fps= 24 q=25.0 size=       0kB time=00:00:00.63 bitrate=   0.6kbits/s speed=0.102x    frame=  160 fps= 24 q=25.0 size=       0kB time=00:00:00.74 bitrate=   0.5kbits/s speed=0.11x    frame=  173 fps= 24 q=25.0 size=       0kB time=00:00:00.85 bitrate=   0.5kbits/s speed=0.117x    frame=  186 fps= 24 q=25.0 size=       0kB time=00:00:00.95 bitrate=   0.4kbits/s speed=0.123x    frame=  199 fps= 24 q=25.0 size=       0kB time=00:00:01.06 bitrate=   0.4kbits/s speed=0.128x    frame=  212 fps= 24 q=25.0 size=       0kB time=00:00:01.17 bitrate=   0.3kbits/s speed=0.133x    frame=  225 fps= 24 q=25.0 size=     256kB time=00:00:01.28 bitrate=1634.4kbits/s speed=0.137x    frame=  238 fps= 24 q=25.0 size=     256kB time=00:00:01.39 bitrate=1507.1kbits/s speed=0.141x    frame=  251 fps= 24 q=25.0 size=     256kB time=00:00:01.50 bitrate=1398.3kbits/s speed=0.144x    frame=  264 fps= 24 q=25.0 size=     256kB time=00:00:01.60 bitrate=1304.1kbits/s speed=0.147x    frame=  277 fps= 24 q=25.0 size=     256kB time=00:00:01.71 bitrate=1221.8kbits/s speed=0.15x    frame=  290 fps= 24 q=25.0 size=     256kB time=00:00:01.82 bitrate=1149.3kbits/s speed=0.152x    frame=  303 fps= 24 q=25.0 size=     256kB time=00:00:01.93 bitrate=1084.9kbits/s speed=0.155x    frame=  316 fps= 24 q=25.0 size=     256kB time=00:00:02.04 bitrate=1027.3kbits/s speed=0.157x    frame=  328 fps= 24 q=25.0 size=     256kB time=00:00:02.14 bitrate= 979.4kbits/s speed=0.158x    frame=  341 fps= 24 q=25.0 size=     256kB time=00:00:02.25 bitrate= 932.2kbits/s speed=0.16x    frame=  354 fps= 24 q=25.0 size=     512kB time=00:00:02.35 bitrate=1778.6kbits/s speed=0.162x    frame=  367 fps= 24 q=25.0 size=     512kB time=00:00:02.46 bitrate=1700.5kbits/s speed=0.163x    frame=  380 fps= 24 q=25.0 size=     512kB time=00:00:02.57 bitrate=1629.0kbits/s speed=0.165x    frame=  393 fps= 24 q=25.0 size=     512kB time=00:00:02.68 bitrate=1563.2kbits/s speed=0.166x    frame=  406 fps= 24 q=25.0 size=     512kB time=00:00:02.79 bitrate=1502.5kbits/s speed=0.167x    frame=  419 fps= 24 q=25.0 size=     512kB time=00:00:02.90 bitrate=1446.4kbits/s speed=0.169x    frame=  432 fps= 24 q=25.0 size=     512kB time=00:00:03.00 bitrate=1394.3kbits/s speed=0.17x    frame=  445 fps= 24 q=25.0 size=     512kB time=00:00:03.11 bitrate=1345.9kbits/s speed=0.171x    frame=  458 fps= 24 q=25.0 size=     512kB time=00:00:03.22 bitrate=1300.7kbits/s speed=0.172x    frame=  471 fps= 24 q=25.0 size=     512kB time=00:00:03.33 bitrate=1258.4kbits/s speed=0.173x    frame=  485 fps= 24 q=25.0 size=     512kB time=00:00:03.45 bitrate=1215.8kbits/s speed=0.174x    frame=  498 fps= 24 q=25.0 size=     512kB time=00:00:03.55 bitrate=1178.8kbits/s speed=0.175x    frame=  511 fps= 24 q=25.0 size=     512kB time=00:00:03.66 bitrate=1144.0kbits/s speed=0.176x    frame=  524 fps= 24 q=25.0 size=     512kB time=00:00:03.77 bitrate=1111.2kbits/s speed=0.176x    frame=  537 fps= 24 q=25.0 size=     512kB time=00:00:03.88 bitrate=1080.2kbits/s speed=0.177x    frame=  550 fps= 25 q=25.0 size=     512kB time=00:00:03.99 bitrate=1050.8kbits/s speed=0.178x    frame=  563 fps= 25 q=25.0 size=     512kB time=00:00:04.10 bitrate=1023.1kbits/s speed=0.179x    frame=  576 fps= 25 q=25.0 size=     768kB time=00:00:04.20 bitrate=1495.1kbits/s speed=0.179x    frame=  589 fps= 25 q=25.0 size=     768kB time=00:00:04.31 bitrate=1457.5kbits/s speed=0.18x    frame=  599 fps= 24 q=-1.0 Lsize=     872kB time=00:00:04.96 bitrate=1438.7kbits/s speed=0.202x    
video:864kB audio:0kB subtitle:0kB other streams:0kB global headers:0kB muxing overhead: 0.917879%
[libx264 @ 0x55e3a1bda4c0] frame I:3     Avg QP: 8.83  size:158632
[libx264 @ 0x55e3a1bda4c0] frame P:151   Avg QP:11.58  size:  1996
[libx264 @ 0x55e3a1bda4c0] frame B:445   Avg QP:10.01  size:   241
[libx264 @ 0x55e3a1bda4c0] consecutive B-frames:  0.8%  0.3%  0.0% 98.8%
[libx264 @ 0x55e3a1bda4c0] mb I  I16..4: 57.1% 25.9% 17.0%
[libx264 @ 0x55e3a1bda4c0] mb P  I16..4:  0.0%  0.1%  0.2%  P16..4:  0.2%  0.1%  0.0%  0.0%  0.0%    skip:99.4%
[libx264 @ 0x55e3a1bda4c0] mb B  I16..4:  0.0%  0.0%  0.0%  B16..8:  0.7%  0.0%  0.0%  direct: 0.0%  skip:99.2%  L0:62.5% L1:37.5% BI: 0.0%
[libx264 @ 0x55e3a1bda4c0] 8x8 transform intra:27.3% inter:6.5%
[libx264 @ 0x55e3a1bda4c0] coded y,uvDC,uvAC intra: 12.7% 7.2% 7.1% inter: 0.0% 0.0% 0.0%
[libx264 @ 0x55e3a1bda4c0] i16 v,h,dc,p: 95%  3%  2%  0%
[libx264 @ 0x55e3a1bda4c0] i8 v,h,dc,ddl,ddr,vr,hd,vl,hu: 69%  5% 25%  0%  0%  0%  0%  0%  0%
[libx264 @ 0x55e3a1bda4c0] i4 v,h,dc,ddl,ddr,vr,hd,vl,hu: 34% 18% 24%  5%  4%  4%  4%  4%  3%
[libx264 @ 0x55e3a1bda4c0] i8c dc,h,v,p: 95%  2%  2%  1%
[libx264 @ 0x55e3a1bda4c0] Weighted P-Frames: Y:0.0% UV:0.0%
[libx264 @ 0x55e3a1bda4c0] ref P L0: 86.5%  3.1%  9.4%  0.9%
[libx264 @ 0x55e3a1bda4c0] ref B L0: 50.9% 48.8%  0.2%
[libx264 @ 0x55e3a1bda4c0] ref B L1: 99.5%  0.5%
[libx264 @ 0x55e3a1bda4c0] kb/s:1417.39
Exiting normally, received signal 15.
